# xmcd
#
# Track frame offsets:
# 150
# 11835
# 22904
# 36399
# 47383
# 60273
# 70491
# 81740
# 90537
# 100973
# 114205
# 124795
# 133811
# 141374
# 153558
# 165021
# 174364
# 186076
# 190962
# 195269
# 199282
# 208070
# 212922
# 225024
# 235892
# 248719
# 260495
# 271908
# 284673
# 295721
# 306647
# 316543
# 329542
# 340010
# 350662
#
# Disc length: 4771 seconds
#
#
# Revision: 0
# Processed by: cddbd v1.5.2PL0 Copyright (c) Steve Scherf et al.
# Submitted via: FreeRIP 2.96 
#
DISCID=0112a123
DTITLE=rusty draper - no help wanted disk 2
DYEAR=2009
DGENRE=country
TTITLE0=are you satisfied
TTITLE1=tiger lily
TTITLE2=cherry
TTITLE3=corrine, corinna
TTITLE4=moon country
TTITLE5=ole buttermilk sky
TTITLE6=the last frontier
TTITLE7=behind those swingin doors
TTITLE8=freight train
TTITLE9=mule, you lazy mule
TTITLE10=the ballad of davy crockett
TTITLE11=in the middle of the house
TTITLE12=zorro
TTITLE13=the gun of billy the kid
TTITLE14=easter morning
TTITLE15=peter rabbit
TTITLE16=eating coober peas
TTITLE17=the blue tail fly
TTITLE18=down in the valley
TTITLE19=pony boy
TTITLE20=the car song
TTITLE21=camptown races
TTITLE22=lonesome song
TTITLE23=texarkana baby
TTITLE24=lighthouse
TTITLE25=skylark
TTITLE26=sing baby sing
TTITLE27=september song
TTITLE28=the train with the rhumba beat
TTITLE29=when I have learned
TTITLE30=buzz buzz buzz
TTITLE31=if I could be with you
TTITLE32=I habe been thinking
TTITLE33=I get the blues when it rain
TTITLE34=good golly pretty molly
EXTD=
EXTT0=
EXTT1=
EXTT2=
EXTT3=
EXTT4=
EXTT5=
EXTT6=
EXTT7=
EXTT8=
EXTT9=
EXTT10=
EXTT11=
EXTT12=
EXTT13=
EXTT14=
EXTT15=
EXTT16=
EXTT17=
EXTT18=
EXTT19=
EXTT20=
EXTT21=
EXTT22=
EXTT23=
EXTT24=
EXTT25=
EXTT26=
EXTT27=
EXTT28=
EXTT29=
EXTT30=
EXTT31=
EXTT32=
EXTT33=
EXTT34=
PLAYORDER=
